<!-- icon666.com - MILLIONS vector ICONS FREE --><svg version="1.1" id="Capa_1" xmlns="http://www.w3.org/2000/svg" xmlns:xlink="http://www.w3.org/1999/xlink" x="0px" y="0px" viewBox="0 0 512 512" style="enable-background:new 0 0 512 512;" xml:space="preserve"><path style="fill:#C0826C;" d="M472.435,205.4c-0.846-16.01-14.028-59.619-51.102-71.642 c-54.985-17.833-124.581,24.047-246.157-0.668l-40.225-15.129c-21.376-8.039-45.486-2.518-61.232,14.023l-61.836,64.955 c-3.793,4.018-5.25,9.706-3.855,15.052l3.629,13.911c1.871,7.174,8.481,12.135,15.894,12.001c24.929-0.45,43.406-2.807,57.171-6.114 c35.07,52.303,88.116,83.332,88.116,83.332l1.002,105.21l-23.525,5.881c-5.318,1.329-9.588,5.283-11.321,10.483l-2.301,6.904 c-1.442,4.327,1.778,8.796,6.34,8.796h30.244c5.36,0,10.366-2.679,13.34-7.139l8.283-12.425c1.968-2.953,3.259-6.305,3.779-9.816 l16.393-95.49c60.03,24.959,138.988,9.912,196.192-16.254l32.114,60.964v46.425l-19.45,7.152c-4.787,1.595-8.544,5.352-10.14,10.14 l-2.549,7.648c-1.442,4.327,1.778,8.796,6.34,8.796h28.29c6.394,0,12.177-3.8,14.715-9.669l8.559-19.792 c2.172-5.022,3.292-10.436,3.292-15.908v-52.435c0-4.079-0.776-8.079-2.281-11.87c-4.427-11.153-13.752-37.549-13.752-62.003 C456.404,251.993,474.439,243.308,472.435,205.4z"></path><path style="fill:#F5DCB4;" d="M52.557,75.045c-2.099,19.993,1.109,53.881,42.682,67.404c3.016,0.981,6.355,0.314,8.823-1.676 c3.786-3.054,9.039-8.476,11.544-16.445c1.619-5.149-1.867-10.441-7.118-11.691c-18.244-4.343-39.156-15.898-48.712-38.578 C58.25,70.437,52.968,71.135,52.557,75.045z"></path><g><path style="fill:#4B3F4E;" d="M173.841,420.327l-23.525,5.881c-5.318,1.329-9.588,5.283-11.321,10.483l-2.301,6.904 c-1.442,4.327,1.778,8.796,6.339,8.796h30.244c5.36,0,10.366-2.679,13.34-7.139l7.843-11.764L173.841,420.327z"></path><path style="fill:#4B3F4E;" d="M417.579,452.392h28.29c6.395,0,12.177-3.8,14.716-9.669l4.172-9.647l-21.379-14.419l-19.45,7.152 c-4.787,1.595-8.544,5.352-10.14,10.14l-2.55,7.648C409.797,447.923,413.018,452.392,417.579,452.392z"></path></g><g><path style="fill:#AF6E5A;" d="M162.819,271.03c-8.478-8.478-26.829-30.854-38.398-52.865c-2.706-5.148-9.704-6.341-13.838-2.251 c-5.546,5.487-14.043,11.95-25.859,15.871c35.07,52.303,88.116,83.332,88.116,83.332 C172.839,286.06,168.497,276.708,162.819,271.03z"></path><path style="fill:#AF6E5A;" d="M411.263,311.269l-6.454-15.32c-3.208-7.615-11.67-11.528-19.544-9.022 c-56.611,18.017-121.08,13.69-149.379,10.469c-8.315-0.946-15.904,4.677-17.49,12.894l-3.326,17.233 C275.101,352.482,354.059,337.434,411.263,311.269z"></path><path style="fill:#AF6E5A;" d="M56.273,201.893c-7.937-7.631-16.196-19.024-21.239-29.478l-23.151,24.522 c-3.793,4.018-5.25,9.706-3.855,15.052l3.628,13.911c1.871,7.174,8.481,12.135,15.894,12.001 c15.839-0.286,29.053-1.346,40.129-2.926C71.304,222.934,64.957,210.243,56.273,201.893z"></path><path style="fill:#AF6E5A;" d="M115.715,121.8l0.871,14.187c0.67,10.908,9.978,18.176,20.703,16.079 c12.665-2.476,28.236-8.104,36.294-20.866c2.072-3.282,0.505-7.649-3.093-9.106c-7.55-3.057-22.413-7.522-46.493-8.593 C119.317,113.294,115.428,117.124,115.715,121.8z"></path></g><path d="M510.457,327.596c-0.236-0.309-23.471-31.309-10.885-68.171c13.498-39.529,9.164-75.479-11.891-98.635 c-10.884-11.97-24.857-18.534-36.687-17.545c-7.425-7.157-16.459-13.092-27.347-16.624c-25.778-8.361-54.332-4.459-87.394,0.061 c-39.95,5.46-89.355,12.211-153.174,0.304c0.677-2.563-0.03-5.316-1.93-7.218c-2.036-2.035-14.321-12.209-56.345-12.551 c-21.52-0.174-55.739-13.334-61.807-48.872c-0.578-3.391-3.391-5.953-6.82-6.216c-3.438-0.262-6.6,1.843-7.688,5.106 c-0.446,1.339-10.759,33.103,3.99,60.66c2.792,5.216,6.281,9.902,10.433,14.063L6.432,191.788 c-5.604,5.936-7.72,14.195-5.659,22.095l3.629,13.909c2.718,10.424,12.081,17.61,22.86,17.61c0.146,0,0.294-0.002,0.441-0.004 c21.021-0.381,38.949-2.105,53.728-5.156c30.432,43.296,71.477,71.205,83.949,79.094l0.906,95.149l-17.79,4.446 c-7.848,1.963-14.06,7.716-16.617,15.389l-5.233,15.699c-0.763,2.287-0.379,4.802,1.031,6.758c1.409,1.955,3.673,3.114,6.084,3.114 h48.096c2.508,0,4.85-1.253,6.24-3.34l13.043-19.564c2.548-3.822,4.257-8.241,4.944-12.785l14.71-85.689 c19.773,6.712,41.576,10.034,64.415,10.034c39.332,0,81.707-9.828,121.935-29.007l28.734,54.546v39.338l-14.439,5.31 c-6.934,2.353-12.447,7.893-14.765,14.843l-5.481,16.444c-0.763,2.287-0.379,4.802,1.031,6.758c1.409,1.955,3.673,3.114,6.084,3.114 h48.096c2.991,0,5.696-1.777,6.884-4.523l12.74-29.46c2.594-5.996,3.908-12.351,3.908-18.886v-58.839 c0-1.067-0.228-2.122-0.668-3.094c-0.153-0.34-15.364-34.276-15.364-64.374c0-11.452,3.212-19.24,6.932-28.258 c4.818-11.686,10.281-24.93,9.09-47.455c-0.541-10.235-4.801-27.161-14.213-42.981c3.627,2.08,7.373,5.01,10.873,8.86 c17.267,18.99,20.472,49.496,8.793,83.696c-15.149,44.366,12.001,80.608,13.164,82.129c1.477,1.931,3.707,2.945,5.964,2.944 c1.589,0,3.19-0.503,4.55-1.542C512.345,335.593,512.972,330.886,510.457,327.596z M59.8,89.477 c12.562,17.877,32.334,27.494,49.828,31.08c-3.096,7.602-8.282,12.582-11.303,15.003c-15.435-4.866-26.382-13.148-32.571-24.651 C62.004,103.94,60.334,96.451,59.8,89.477z M456.968,246.74c-3.965,9.613-8.064,19.554-8.064,33.977 c0,29.858,12.879,61.693,16.032,69.039v57.268c0,4.476-0.9,8.826-2.676,12.933l-10.784,24.937h-32.763l2.191-6.572 c0.845-2.535,2.862-4.552,5.396-5.396c0.073-0.024,0.146-0.05,0.217-0.076l19.449-7.151c2.951-1.085,4.912-3.896,4.912-7.039 v-46.426c0-1.218-0.297-2.418-0.864-3.495l-51.81-98.35c-1.931-3.664-6.467-5.071-10.131-3.141 c-3.665,1.931-5.071,6.467-3.141,10.131l15.211,28.874c-28.86,13.679-59.959,22.633-90.087,25.897 c-31.473,3.408-61.34,0.417-86.688-8.627l3.289-19.159c0.701-4.082-2.04-7.96-6.123-8.66c-4.081-0.705-7.959,2.041-8.66,6.123 l-20.587,119.918c-0.01,0.056-0.019,0.112-0.027,0.169c-0.355,2.4-1.255,4.736-2.601,6.755l-10.816,16.225h-33.676l1.942-5.827 c0.928-2.783,3.18-4.869,6.024-5.58l23.525-5.881c3.365-0.842,5.714-3.88,5.682-7.348l-1.002-105.21 c-0.025-2.639-1.436-5.07-3.714-6.402c-0.485-0.284-46.151-27.311-79.634-72.48c13.237-4.35,22.833-10.214,28.707-17.571 c7.529-9.429,6.031-17.955,5.835-18.896c-0.845-4.057-4.819-6.665-8.869-5.816c-4.056,0.843-6.66,4.814-5.816,8.869 c0.005,0.023,0.016,2.869-2.871,6.483c-5.932,7.428-25.062,20.055-86.546,21.167c-0.051,0.001-0.103,0.002-0.154,0.002 c-3.888,0-7.389-2.668-8.361-6.396l-3.629-13.909c-0.747-2.864,0.021-5.859,2.053-8.012l57.409-60.811 c6.627,4.105,14.282,7.368,22.973,9.738c1.932,0.529,3.993,0.261,5.726-0.741c0.682-0.395,15.704-9.265,21.508-28.05 c22.835,0.211,35.148,3.533,41.097,5.932c-10.313,16.882-31.949,17.143-33.22,17.143c-0.03,0-0.049,0-0.072,0 c-4.105,0-7.455,3.308-7.498,7.423c-0.042,4.143,3.281,7.534,7.423,7.577c0.033,0,0.082,0,0.147,0 c2.479,0,27.601-0.495,42.691-19.498c68.521,13.616,120.739,6.49,162.764,0.749c32.527-4.446,58.219-7.958,80.736-0.655 c35.541,11.528,45.392,54.81,45.926,64.905C465.958,224.939,461.59,235.529,456.968,246.74z"></path><circle cx="79.678" cy="171.667" r="7.5"></circle></svg>