<!-- icon666.com - MILLIONS vector ICONS FREE --><svg id="Capa_1" enable-background="new 0 0 508.805 508.805" viewBox="0 0 508.805 508.805" xmlns="http://www.w3.org/2000/svg"><g><g><g><g><path d="m128.004 230.156c67.921 0 180.331 2.87 180.331-90.507 0-49.797-40.369-90.166-90.166-90.166-36.695 0-68.269 21.92-82.345 53.38 0 0-7.821 22.481-7.821 44.972.001 14.984.001 82.321.001 82.321z" fill="#fff"></path></g><g><path d="m150.038 217.164s0-67.337 0-82.321c0-22.491 7.821-44.972 7.821-44.972 5.906-13.2 14.901-24.71 26.053-33.636-21.393 8.796-38.665 25.568-48.087 46.629 0 0-7.821 22.481-7.821 44.972v82.321c47.019 0 115.349 1.365 152.957-28.766-38.605 16.704-92.048 15.773-130.923 15.773z" fill="#cfdbfa"></path></g><g><path d="m203.189 230.156c67.921 0 180.331 2.87 180.331-90.507 0-49.797-40.369-90.166-90.166-90.166-36.695 0-68.269 21.92-82.345 53.38 0 0-7.821 22.481-7.821 44.972.001 14.984.001 82.321.001 82.321z" fill="#fff"></path></g><g><path d="m247.323 207.204c-11.682.062-21.194-9.37-21.194-21.052v-61.257c0-22.491 7.821-44.972 7.821-44.972 2.275-5.084 5.013-9.914 8.149-14.448-13.491 9.34-24.319 22.255-31.09 37.388 0 0-7.821 22.481-7.821 44.972v82.321c54.919 0 138.914 1.866 169.063-46.779-32.791 21.271-83.311 23.607-124.928 23.827z" fill="#cfdbfa"></path></g><g><path d="m325.428 221.738c38.572 0 175.877 53.598 175.877 108.086h-36.195c0 43.241-24.237 82.957-62.883 102.353-34.913 17.522-74.867 27.021-111.679 27.021h-101.166c-50.956 0-95.142-28.982-116.975-71.361v-42.704c0-68.149 55.245-123.394 123.394-123.394h129.627z" fill="#f8e868" style="fill: rgb(247, 219, 2);"></path></g><g><g><path d="m417.11 408.157c-35.696 15.865-74.37 31.657-111.181 31.657h-101.166c-50.956 0-95.142-28.982-116.975-71.361v-42.704c0-24.502 7.142-47.336 19.457-66.535-21.56 22.217-34.838 52.515-34.838 85.918v42.705c21.832 42.379 66.019 71.361 116.975 71.361h101.166c36.811 0 76.766-9.499 111.679-27.021 18.886-9.479 42.217-29.342 54.549-59.342-8.558 8.658-21.666 27.322-39.666 35.322z" fill="#e8ab4c"></path></g><g><path d="m457.423 307.529-.648 22.295h44.53c0-6.504-3.976-15.906-7.488-22.295z" fill="#e8ab4c"></path></g></g><g><path d="m262.777 459.198h-75.397l.063-237.46h75.333z" fill="#92a2b5"></path></g><g><path d="m209.008 439.853.058-218.115h-21.623l-.063 237.46h75.397v-19.345z" fill="#536275"></path></g><g><path d="m413.254 425.842s-46.882 23.426-75.397 27.989l.062-232.092s45.81 9.976 75.333 27.448z" fill="#92a2b5"></path></g><g><path d="m337.862 437.83-.004 16.001c28.514-4.563 75.397-27.989 75.397-27.989v-16c-.004.001-46.879 23.423-75.393 27.988z" fill="#536275"></path></g><g><circle cx="117.572" cy="266.658" fill="#92a2b5" r="110.407"></circle></g><g><path d="m132.675 360.962c-60.976 0-110.407-49.431-110.407-110.407 0-25.24 8.476-48.497 22.728-67.094-23.183 20.239-37.831 50.006-37.831 83.197 0 60.976 49.431 110.407 110.407 110.407 35.736 0 67.501-16.983 87.679-43.313-19.406 16.943-44.791 27.21-72.576 27.21z" fill="#536275"></path></g><g><path d="m360.277 267.836h15v15h-15z" fill="#fff"></path></g><g><path d="m360.277 297.836h15v15h-15z" fill="#fff"></path></g><g><path d="m60.11 237.836h15v15h-15z" fill="#fff"></path></g><g><path d="m120.308 237.836h15v15h-15z" fill="#fff"></path></g></g></g><g><path d="m347.229 218.643c44.633-24.933 55.643-84.154 30.986-127.302-24.164-42.286-77.447-60.644-122.498-41.794-67.858-28.487-140.348 27.527-135.079 99.243-4.975-.128-9.957.057-14.909.553 0-23.322 3.096-59.429-30.62-59.429v15c21.67 0 15.62 33.28 15.62 46.922-5.137 1.201-10.144 2.743-15 4.593 0-20.832-3.671-45.655-30.62-45.655v15c19.597 0 15.62 24.814 15.62 37.613-56.793 31.384-77.853 105.4-45.498 161.779 32.783 57.123 108.647 76.596 164.712 41.506v84.661c-42.86-3.222-80.936-28.241-100.869-66.932l-13.334 6.869c17.519 34.007 48.797 59.771 85.635 70.173 21.591 6.097 43.57 5.254 65.721 5.254 58.127 0 115.057 2.989 170.229-19.537 46.947-19.168 81.852-57.421 85.056-109.837h36.424c0-30.121-11.721-51.739-36.818-68.824-31.356-21.345-119.621-48.301-124.758-49.856zm-211.921-78.994c0-52.804 51.173-92.905 102.477-80.283-14.411 9.968-26.181 23.805-33.621 40.434l13.692 6.127c32.339-72.282 142.026-59.299 156.711 18.332 6.918 36.573-9.071 70.645-43.327 85.582-32.304 14.086-69.677 13.73-104.235 12.933-4.121-10.24-9.638-19.772-16.316-28.36v-46.58h-15v30.587c-16.5-14.625-37.113-24.707-59.863-28.258-.334-3.387-.518-6.898-.518-10.514zm-120.643 127.009c0-42.713 27.486-81.939 67.567-96.64 40.582-14.885 87.236-2.07 114.719 31.219 27.144 32.878 31.04 80.516 9.458 117.32-22.075 37.644-66.759 57.694-109.55 48.914-47.216-9.688-82.194-52.629-82.194-100.813zm255.611 185.04v-48.862h-15v48.862h-60.333v-96.143c33.145-28.885 47.722-74.994 36.979-117.671 4.408.084 20.123.116 23.354.054v119.898h15v-120.458c18.377-1.054 37.661-3.633 55.316-9.404 1.676.468 3.35.938 5.018 1.414v218.676c-19.5 4.76-60.334 3.634-60.334 3.634zm75.334-6.766v-211.098c4.106 1.259 46.018 14.822 59.667 19.713v167.207c-18.417 10.32-41.314 19.735-59.667 24.178zm112-122.608c0 34.278-10.555 66.16-37.333 88.966v-152.133c39.679 15.566 68.81 33.705 73.007 63.167z" fill="#000000"></path><path d="m213.124 119.644-14.558-3.617c-1.32 5.313-2.196 10.787-2.605 16.27l14.959 1.115c.346-4.642 1.087-9.274 2.204-13.768z" fill="#000000"></path><path d="m255.276 372.836h15v15h-15z" fill="#000000"></path><path d="m435.276 297.836h15v15h-15z" fill="#000000"></path><path d="m135.61 403.004h15v15h-15z" fill="#000000"></path></g></g></svg>